<svg xmlns="http://www.w3.org/2000/svg" viewBox="0 0 37.53 29.2"><defs><style>.cls-1{fill:#0d8ce6;}.cls-2{fill:#53b9ff;}</style></defs><title>Asset 5</title><g id="Layer_2" data-name="Layer 2"><g id="Layer_3" data-name="Layer 3"><path class="cls-1" d="M37.48,11.18s-.87,1.73-5.21,4.46c-1.85,1.16-5.69,2.4-10.62,2.88-2.66.26-7.57,0-9.67,0S8.9,19,7,21.15L0,29H4.25c1.83,0,13.27.66,18.35-.73C39.09,23.78,37.48,11.18,37.48,11.18Z"/><path class="cls-2" d="M37,6.17C37.84,1.33,35.1,0,35.1,0S35.22,3.94,28,4.77C21.56,5.51,0,5,0,5L6.93,12.9c1.88,2.15,2.87,2.4,5,2.55a89,89,0,0,0,9.92-.15c3.45-.26,8.37-1.39,11.69-4A8.83,8.83,0,0,0,37,6.17Z"/></g></g></svg>