<svg xmlns="http://www.w3.org/2000/svg" viewBox="0 0 152.63 100.52"><defs><style>.cls-1{fill:#222;}</style></defs><title>Squarespace</title><g id="Layer_2" data-name="Layer 2"><g id="Content"><path id="squarespace-logo-stacked" class="cls-1" d="M39.45,95c0,2.7-1.45,4.07-3.72,4.07S32,97.56,32,94.89V87.81H30.57V95c0,3.49,2.08,5.36,5.13,5.36s5.15-1.87,5.15-5.47V87.81H39.45Zm10.21-7.26L44,100.15h1.43l1.46-3.26h6.72l1.45,3.26h1.5L51,87.72Zm-2.19,7.9,2.82-6.28,2.8,6.28Zm59.38-7.81h-4.62v12.34h1.39V95.79h3c2.63,0,4.85-1.38,4.85-4v0C111.48,89.29,109.64,87.81,106.86,87.81Zm3.21,4c0,1.62-1.34,2.71-3.38,2.71h-3.05V89.09h3.12c2,0,3.32.92,3.32,2.68ZM25.8,94v0a6.29,6.29,0,1,0-12.59,0v0a6.31,6.31,0,0,0,10.15,5L25,100.52l1-1L24.34,98.1A6.58,6.58,0,0,0,25.8,94Zm-2.49,3.26L21,95.14l-.93,1,2.31,2a4.72,4.72,0,0,1-2.86.92A4.91,4.91,0,0,1,14.66,94v0a4.85,4.85,0,0,1,4.83-5.06A4.91,4.91,0,0,1,24.36,94v0A5.27,5.27,0,0,1,23.32,97.24ZM5.24,93.31c-2.71-.58-3.35-1.23-3.35-2.4v0c0-1.11,1-2,2.63-2a5.42,5.42,0,0,1,3.56,1.34l.81-1.08a6.43,6.43,0,0,0-4.34-1.52C2.2,87.63.49,89.06.49,91v0c0,2,1.3,2.94,4.14,3.56,2.59.55,3.21,1.2,3.21,2.34v0c0,1.22-1.09,2.1-2.75,2.1A5.88,5.88,0,0,1,.86,97.33l-.86,1a7.22,7.22,0,0,0,5,2c2.45,0,4.21-1.37,4.21-3.49v0C9.26,94.91,8,93.91,5.24,93.31ZM145,98.88V94.56h6.74V93.29H145V89.08h7.53V87.81h-8.92v12.34h9V98.88ZM93.45,93.31c-2.71-.58-3.35-1.23-3.35-2.4v0c0-1.11,1-2,2.63-2a5.42,5.42,0,0,1,3.56,1.34l.81-1.08a6.44,6.44,0,0,0-4.34-1.52c-2.35,0-4.06,1.43-4.06,3.37v0c0,2,1.31,2.94,4.14,3.56,2.59.55,3.21,1.2,3.21,2.34v0c0,1.22-1.09,2.1-2.75,2.1a5.88,5.88,0,0,1-4.23-1.74l-.86,1a7.22,7.22,0,0,0,5,2c2.45,0,4.21-1.37,4.21-3.49v0C97.47,94.91,96.2,93.91,93.45,93.31ZM76.68,94.56h6.74V93.29H76.68V89.08h7.53V87.81H75.28v12.34h9V98.88H76.68Zm41.9-6.84L113,100.15h1.43l1.46-3.26h6.72l1.45,3.26h1.5l-5.62-12.43Zm-2.19,7.9,2.82-6.28,2.8,6.28Zm17.8,3.46A4.87,4.87,0,0,1,129.41,94v0a4.84,4.84,0,0,1,4.78-5.06,5.36,5.36,0,0,1,3.88,1.69l1-1a6.42,6.42,0,0,0-4.81-2A6.22,6.22,0,0,0,128,94v0a6.16,6.16,0,0,0,6.19,6.35,6.43,6.43,0,0,0,4.94-2.17l-.92-.9A5.36,5.36,0,0,1,134.18,99.07Zm-63.9-7.56v0a3.41,3.41,0,0,0-1-2.43,4.87,4.87,0,0,0-3.51-1.23H60.52v12.34h1.39v-4.8h3.53l3.58,4.8h1.71l-3.79-5C68.88,94.75,70.29,93.55,70.29,91.51ZM61.91,94.1v-5h3.81c2,0,3.15.92,3.15,2.43v0c0,1.59-1.32,2.54-3.17,2.54ZM47.75,35.41a2.87,2.87,0,0,0,4.06,0L78.63,8.6a9.78,9.78,0,0,1,13.81,0A2.87,2.87,0,0,0,96.5,4.54a15.53,15.53,0,0,0-21.94,0L47.75,31.35A2.87,2.87,0,0,0,47.75,35.41Zm13,8.94L87.57,17.54a2.87,2.87,0,0,0-4.06-4.06L56.69,40.29A9.77,9.77,0,1,1,42.88,26.47L64.45,4.9A2.87,2.87,0,1,0,60.38.84L38.81,22.41A15.51,15.51,0,1,0,60.75,44.35ZM78.63,62.23l26.81-26.81a2.87,2.87,0,0,0-4.06-4.06L74.57,58.16a9.78,9.78,0,0,1-13.81,0,2.87,2.87,0,0,0-4.06,4.06A15.53,15.53,0,0,0,78.63,62.23Zm14.18,3.7,21.57-21.57A15.51,15.51,0,1,0,92.44,22.41L65.63,49.23a2.87,2.87,0,0,0,4.06,4.06L96.5,26.48a9.77,9.77,0,1,1,13.81,13.81L88.75,61.86a2.87,2.87,0,0,0,4.06,4.06Z"/></g></g></svg>